<svg xmlns="http://www.w3.org/2000/svg" width="900" height="360">
<text x="20" y="24" font-size="17">HYP-B16-XAU-M15-PE-PORT-01 child equity</text>
<rect x="55.0" y="50" width="367.5" height="255" fill="none" stroke="gray"/>
<polyline points="55.0,189.4 55.5,188.7 55.9,187.8 56.4,187.1 56.9,186.6 57.3,185.8 57.8,185.6 58.3,185.1 58.8,184.6 59.2,184.3 59.7,184.0 60.2,183.5 60.6,182.9 61.1,182.0 61.6,181.5 62.0,180.4 62.5,179.8 63.0,179.3 63.5,178.9 63.9,178.4 64.4,177.6 64.9,207.9 65.3,206.3 65.8,207.0 66.3,205.8 66.7,205.7 67.2,205.4 67.7,204.3 68.2,203.9 68.6,205.6 69.1,204.9 69.6,205.8 70.0,205.3 70.5,204.9 71.0,204.3 71.4,203.8 71.9,202.8 72.4,202.3 72.9,202.1 73.3,213.9 73.8,214.0 74.3,213.8 74.7,213.1 75.2,212.7 75.7,212.1 76.1,211.4 76.6,210.9 77.1,210.3 77.6,210.2 78.0,209.7 78.5,209.3 79.0,209.0 79.4,208.2 79.9,207.7 80.4,206.7 80.8,206.5 81.3,206.2 81.8,205.7 82.3,205.0 82.7,204.2 83.2,203.5 83.7,202.9 84.1,202.3 84.6,201.9 85.1,201.1 85.5,199.8 86.0,198.6 86.5,198.2 87.0,197.0 87.4,196.2 87.9,201.4 88.4,200.9 88.8,200.5 89.3,199.7 89.8,199.2 90.2,198.6 90.7,197.0 91.2,196.4 91.7,195.0 92.1,193.8 92.6,248.3 93.1,248.0 93.5,247.7 94.0,247.0 94.5,246.3 94.9,245.9 95.4,245.5 95.9,245.2 96.4,244.5 96.8,244.0 97.3,242.9 97.8,241.8 98.2,241.4 98.7,241.0 99.2,240.6 99.6,238.6 100.1,237.8 100.6,237.5 101.1,237.3 101.5,237.1 102.0,236.6 102.5,236.3 102.9,236.1 103.4,235.2 103.9,234.3 104.3,233.7 104.8,233.3 105.3,232.9 105.8,232.4 106.2,232.0 106.7,231.7 107.2,231.4 107.6,230.9 108.1,231.4 108.6,231.2 109.0,230.9 109.5,245.8 110.0,241.1 110.5,240.9 110.9,240.4 111.4,239.9 111.9,239.4 112.3,239.0 112.8,240.0 113.3,239.6 113.7,239.2 114.2,238.7 114.7,238.3 115.2,239.1 115.6,238.6 116.1,238.2 116.6,237.8 117.0,237.4 117.5,236.9 118.0,236.3 118.4,235.9 118.9,235.3 119.4,234.6 119.9,234.3 120.3,234.1 120.8,233.8 121.3,233.7 121.7,233.5 122.2,233.2 122.7,232.9 123.1,232.6 123.6,232.3 124.1,232.0 124.6,231.6 125.0,231.4 125.5,231.0 126.0,230.7 126.4,230.4 126.9,230.2 127.4,231.9 127.8,231.7 128.3,231.6 128.8,260.0 129.3,260.9 129.7,260.5 130.2,259.7 130.7,262.4 131.1,262.0 131.6,261.5 132.1,261.1 132.5,260.6 133.0,260.2 133.5,259.5 134.0,258.8 134.4,257.7 134.9,256.9 135.4,256.4 135.8,255.9 136.3,255.5 136.8,255.0 137.2,254.6 137.7,254.0 138.2,253.7 138.7,253.2 139.1,252.9 139.6,252.6 140.1,252.3 140.5,251.7 141.0,250.7 141.5,250.3 141.9,250.0 142.4,249.4 142.9,249.1 143.4,248.9 143.8,248.7 144.3,259.0 144.8,258.5 145.2,257.7 145.7,257.5 146.2,257.2 146.6,254.6 147.1,253.8 147.6,253.2 148.0,252.4 148.5,251.6 149.0,251.3 149.5,250.6 149.9,249.9 150.4,249.4 150.9,248.3 151.3,246.5 151.8,279.3 152.3,278.6 152.7,277.8 153.2,277.2 153.7,276.8 154.2,276.5 154.6,275.9 155.1,275.0 155.6,274.7 156.0,273.7 156.5,273.0 157.0,272.9 157.4,272.5 157.9,272.2 158.4,271.8 158.9,271.4 159.3,270.9 159.8,270.4 160.3,269.9 160.7,269.4 161.2,269.5 161.7,269.2 162.1,268.8 162.6,268.2 163.1,267.6 163.6,267.2 164.0,267.4 164.5,267.4 165.0,267.1 165.4,266.7 165.9,266.0 166.4,265.7 166.8,264.9 167.3,264.6 167.8,263.9 168.3,264.7 168.7,264.5 169.2,264.1 169.7,263.8 170.1,263.4 170.6,263.4 171.1,262.6 171.5,262.3 172.0,261.9 172.5,261.5 173.0,260.6 173.4,258.9 173.9,258.5 174.4,258.0 174.8,257.4 175.3,257.2 175.8,256.7 176.2,256.0 176.7,255.2 177.2,256.1 177.7,255.8 178.1,254.5 178.6,254.3 179.1,253.9 179.5,253.3 180.0,253.1 180.5,252.9 180.9,252.5 181.4,251.8 181.9,251.5 182.4,250.2 182.8,249.0 183.3,247.3 183.8,246.9 184.2,246.6 184.7,245.9 185.2,244.9 185.6,244.1 186.1,243.5 186.6,243.0 187.1,242.6 187.5,242.0 188.0,241.5 188.5,241.1 188.9,240.6 189.4,239.3 189.9,238.6 190.3,237.9 190.8,237.0 191.3,235.7 191.8,234.6 192.2,233.9 192.7,232.2 193.2,230.9 193.6,229.9 194.1,228.8 194.6,228.1 195.0,227.2 195.5,226.1 196.0,224.9 196.5,251.4 196.9,250.6 197.4,249.6 197.9,248.9 198.3,247.5 198.8,246.7 199.3,245.8 199.7,245.2 200.2,244.3 200.7,243.6 201.2,243.1 201.6,242.6 202.1,241.5 202.6,241.2 203.0,240.9 203.5,240.2 204.0,239.8 204.4,239.4 204.9,238.7 205.4,238.2 205.9,237.2 206.3,236.3 206.8,235.3 207.3,234.2 207.7,233.0 208.2,232.0 208.7,231.3 209.1,230.4 209.6,229.5 210.1,279.9 210.6,278.5 211.0,277.8 211.5,277.2 212.0,276.7 212.4,276.3 212.9,275.9 213.4,275.5 213.8,275.1 214.3,278.3 214.8,277.8 215.3,277.4 215.7,277.5 216.2,276.9 216.7,276.5 217.1,276.0 217.6,275.0 218.1,305.0 218.5,304.0 219.0,303.5 219.5,303.0 220.0,303.6 220.4,303.0 220.9,301.1 221.4,299.0 221.8,297.5 222.3,296.8 222.8,295.9 223.2,294.9 223.7,293.6 224.2,293.1 224.7,292.1 225.1,291.5 225.6,290.2 226.1,289.6 226.5,289.1 227.0,288.5 227.5,287.6 227.9,287.0 228.4,286.4 228.9,285.1 229.4,285.2 229.8,284.9 230.3,284.4 230.8,284.0 231.2,283.6 231.7,283.2 232.2,282.7 232.6,282.1 233.1,281.3 233.6,279.9 234.1,278.7 234.5,277.7 235.0,277.0 235.5,276.7 235.9,276.0 236.4,274.5 236.9,272.8 237.3,272.0 237.8,270.5 238.3,270.1 238.8,269.6 239.2,268.8 239.7,268.0 240.2,266.9 240.6,266.0 241.1,265.2 241.6,263.6 242.0,263.0 242.5,262.4 243.0,261.9 243.4,260.7 243.9,259.6 244.4,258.7 244.9,257.6 245.3,257.0 245.8,256.0 246.3,255.3 246.7,254.8 247.2,254.0 247.7,253.4 248.1,252.7 248.6,251.8 249.1,250.3 249.6,249.6 250.0,248.6 250.5,249.1 251.0,248.6 251.4,248.3 251.9,247.7 252.4,247.3 252.8,246.2 253.3,245.6 253.8,246.2 254.3,282.0 254.7,279.9 255.2,280.1 255.7,279.5 256.1,278.8 256.6,277.9 257.1,303.1 257.5,301.3 258.0,300.1 258.5,299.5 259.0,299.0 259.4,298.4 259.9,297.6 260.4,296.7 260.8,295.6 261.3,294.6 261.8,293.5 262.2,292.2 262.7,292.4 263.2,291.8 263.7,290.1 264.1,288.2 264.6,286.8 265.1,285.2 265.5,284.3 266.0,286.0 266.5,285.4 266.9,284.7 267.4,283.6 267.9,282.3 268.4,281.4 268.8,279.5 269.3,278.4 269.8,277.5 270.2,276.6 270.7,275.5 271.2,274.7 271.6,272.4 272.1,270.9 272.6,270.1 273.1,269.0 273.5,269.0 274.0,268.2 274.5,302.4 274.9,301.2 275.4,301.3 275.9,300.1 276.3,299.3 276.8,298.3 277.3,297.2 277.8,296.3 278.2,295.6 278.7,295.7 279.2,295.1 279.6,294.7 280.1,293.7 280.6,293.2 281.0,292.7 281.5,292.3 282.0,291.4 282.5,289.8 282.9,289.0 283.4,288.7 283.9,287.9 284.3,286.8 284.8,286.2 285.3,284.9 285.7,283.9 286.2,283.4 286.7,282.7 287.2,281.7 287.6,280.7 288.1,280.1 288.6,279.3 289.0,278.6 289.5,277.4 290.0,276.5 290.4,274.9 290.9,273.1 291.4,273.4 291.9,272.1 292.3,271.1 292.8,270.4 293.3,269.7 293.7,269.0 294.2,268.3 294.7,266.9 295.1,265.6 295.6,264.6 296.1,295.2 296.6,294.0 297.0,292.7 297.5,291.6 298.0,289.8 298.4,288.0 298.9,287.1 299.4,285.5 299.8,283.5 300.3,282.4 300.8,281.7 301.3,281.1 301.7,280.1 302.2,278.9 302.7,277.8 303.1,276.9 303.6,275.9 304.1,274.4 304.5,273.1 305.0,271.8 305.5,270.6 306.0,268.7 306.4,267.0 306.9,264.1 307.4,262.9 307.8,259.5 308.3,303.3 308.8,300.6 309.2,299.2 309.7,297.5 310.2,294.3 310.7,291.4 311.1,287.7 311.6,285.0 312.1,282.9 312.5,280.5 313.0,279.0 313.5,276.8 313.9,275.2 314.4,273.3 314.9,271.9 315.4,270.3 315.8,268.9 316.3,266.4 316.8,264.1 317.2,262.9 317.7,261.7 318.2,260.4 318.6,258.4 319.1,258.0 319.6,256.2 320.1,254.4 320.5,251.6 321.0,249.5 321.5,248.8 321.9,247.0 322.4,243.6 322.9,241.7 323.3,239.9 323.8,237.5 324.3,235.3 324.8,232.5 325.2,231.2 325.7,229.5 326.2,227.4 326.6,225.0 327.1,223.1 327.6,220.7 328.0,219.4 328.5,217.9 329.0,216.7 329.5,215.5 329.9,214.5 330.4,212.7 330.9,211.8 331.3,209.1 331.8,207.9 332.3,206.9 332.7,206.2 333.2,205.3 333.7,204.1 334.1,202.9 334.6,200.5 335.1,199.3 335.6,197.9 336.0,196.3 336.5,196.1 337.0,195.5 337.4,194.1 337.9,193.2 338.4,192.2 338.8,190.7 339.3,189.9 339.8,189.1 340.3,188.4 340.7,186.4 341.2,185.4 341.7,184.4 342.1,182.9 342.6,181.4 343.1,180.4 343.5,179.5 344.0,178.4 344.5,179.6 345.0,177.6 345.4,176.4 345.9,175.8 346.4,174.3 346.8,173.0 347.3,172.1 347.8,170.7 348.2,169.7 348.7,168.0 349.2,167.2 349.7,166.0 350.1,164.9 350.6,163.7 351.1,162.6 351.5,162.4 352.0,161.6 352.5,160.3 352.9,159.4 353.4,158.4 353.9,157.5 354.4,156.7 354.8,202.1 355.3,199.7 355.8,198.7 356.2,197.3 356.7,195.9 357.2,195.0 357.6,193.7 358.1,192.5 358.6,191.2 359.1,189.5 359.5,189.8 360.0,188.8 360.5,187.9 360.9,186.5 361.4,186.0 361.9,185.1 362.3,184.2 362.8,183.2 363.3,182.4 363.8,181.5 364.2,181.1 364.7,180.3 365.2,179.0 365.6,178.6 366.1,177.9 366.6,177.0 367.0,176.4 367.5,175.7 368.0,174.9 368.5,174.0 368.9,173.9 369.4,173.5 369.9,173.0 370.3,172.1 370.8,171.5 371.3,170.9 371.7,169.9 372.2,169.4 372.7,168.0 373.2,166.5 373.6,165.9 374.1,165.3 374.6,164.1 375.0,163.1 375.5,162.5 376.0,161.8 376.4,161.1 376.9,160.5 377.4,159.7 377.9,158.8 378.3,158.4 378.8,157.3 379.3,155.7 379.7,153.5 380.2,152.3 380.7,152.7 381.1,150.3 381.6,147.4 382.1,145.1 382.6,144.1 383.0,142.2 383.5,140.7 384.0,138.8 384.4,136.3 384.9,134.3 385.4,131.6 385.8,125.1 386.3,121.0 386.8,116.4 387.3,159.7 387.7,153.1 388.2,196.4 388.7,190.7 389.1,185.0 389.6,178.7 390.1,173.0 390.5,168.8 391.0,164.3 391.5,153.2 392.0,148.5 392.4,143.6 392.9,138.4 393.4,136.7 393.8,127.9 394.3,125.7 394.8,122.5 395.2,120.5 395.7,118.6 396.2,116.1 396.7,113.3 397.1,110.9 397.6,108.2 398.1,106.2 398.5,104.0 399.0,101.8 399.5,98.1 399.9,94.3 400.4,92.0 400.9,90.0 401.4,87.8 401.8,85.0 402.3,83.3 402.8,80.4 403.2,78.5 403.7,77.0 404.2,75.6 404.6,74.3 405.1,72.8 405.6,70.3 406.1,67.6 406.5,65.1 407.0,63.5 407.5,61.3 407.9,104.7 408.4,99.7 408.9,98.2 409.3,96.0 409.8,94.2 410.3,92.4 410.8,90.3 411.2,88.1 411.7,87.1 412.2,85.4 412.6,84.1 413.1,82.9 413.6,81.4 414.0,79.4 414.5,78.0 415.0,76.8 415.5,74.2 415.9,73.2 416.4,72.5 416.9,70.1 417.3,67.5 417.8,65.4 418.3,63.4 418.7,61.2 419.2,59.1 419.7,56.7 420.2,53.8 420.6,50.0 421.1,93.4 421.6,90.1 422.0,88.9 422.5,87.2" fill="none" stroke="black" stroke-width="1"/>
<text x="55.0" y="330" font-size="13">MAIN n=783</text>
<text x="55.0" y="64" font-size="11">max=10290.65 min=9761.66</text>
<rect x="477.5" y="50" width="367.5" height="255" fill="none" stroke="gray"/>
<polyline points="477.5,257.8 478.0,255.7 478.4,254.1 478.9,253.3 479.3,251.8 479.8,248.5 480.2,247.5 480.7,246.6 481.1,244.5 481.6,243.2 482.0,242.3 482.5,240.8 482.9,240.2 483.4,239.8 483.8,239.0 484.3,238.4 484.7,237.6 485.2,236.3 485.6,235.6 486.1,234.7 486.5,233.9 487.0,233.2 487.4,231.3 487.9,231.0 488.3,230.4 488.8,229.6 489.3,229.1 489.7,228.4 490.2,227.3 490.6,225.9 491.1,225.2 491.5,224.5 492.0,223.6 492.4,222.6 492.9,222.9 493.3,221.9 493.8,221.0 494.2,220.7 494.7,219.4 495.1,219.0 495.6,218.4 496.0,217.7 496.5,216.8 496.9,215.1 497.4,212.5 497.8,210.2 498.3,207.3 498.7,205.2 499.2,203.5 499.6,200.9 500.1,197.8 500.6,195.2 501.0,192.0 501.5,191.4 501.9,187.3 502.4,181.9 502.8,180.6 503.3,179.3 503.7,177.4 504.2,174.8 504.6,282.7 505.1,264.2 505.5,257.9 506.0,252.4 506.4,249.0 506.9,247.3 507.3,245.0 507.8,242.9 508.2,236.5 508.7,232.1 509.1,224.6 509.6,219.9 510.0,212.0 510.5,205.2 511.0,201.9 511.4,200.0 511.9,197.0 512.3,194.3 512.8,191.6 513.2,190.8 513.7,188.3 514.1,183.7 514.6,182.0 515.0,180.5 515.5,177.9 515.9,175.5 516.4,174.0 516.8,171.7 517.3,168.8 517.7,164.6 518.2,162.2 518.6,160.7 519.1,157.5 519.5,155.6 520.0,152.7 520.4,151.3 520.9,149.8 521.3,148.1 521.8,147.1 522.3,145.6 522.7,143.9 523.2,142.3 523.6,139.7 524.1,138.8 524.5,138.0 525.0,136.3 525.4,134.1 525.9,132.1 526.3,129.8 526.8,128.0 527.2,127.0 527.7,125.1 528.1,124.1 528.6,122.1 529.0,120.8 529.5,119.5 529.9,117.3 530.4,122.9 530.8,121.8 531.3,120.4 531.7,119.2 532.2,118.2 532.6,116.4 533.1,114.8 533.6,113.3 534.0,111.4 534.5,108.8 534.9,107.8 535.4,105.2 535.8,103.6 536.3,102.0 536.7,100.6 537.2,98.3 537.6,96.9 538.1,94.0 538.5,91.5 539.0,90.3 539.4,89.4 539.9,86.8 540.3,85.2 540.8,83.6 541.2,83.0 541.7,82.4 542.1,81.6 542.6,81.1 543.0,79.9 543.5,78.6 543.9,78.8 544.4,76.1 544.9,71.9 545.3,66.3 545.8,64.3 546.2,60.2 546.7,56.4 547.1,54.7 547.6,53.1 548.0,50.0 548.5,156.9 548.9,152.9 549.4,147.5 549.8,142.1 550.3,139.2 550.7,136.7 551.2,132.0 551.6,130.6 552.1,126.7 552.5,121.2 553.0,121.5 553.4,119.4 553.9,116.7 554.3,115.2 554.8,112.6 555.2,111.0 555.7,109.4 556.2,107.8 556.6,105.5 557.1,107.2 557.5,105.6 558.0,104.2 558.4,101.6 558.9,99.7 559.3,98.1 559.8,96.0 560.2,94.0 560.7,91.7 561.1,90.5 561.6,89.2 562.0,87.8 562.5,86.4 562.9,84.9 563.4,83.3 563.8,154.0 564.3,150.5 564.7,148.2 565.2,146.0 565.6,142.4 566.1,139.8 566.5,137.2 567.0,134.0 567.5,131.9 567.9,128.7 568.4,127.0 568.8,124.9 569.3,121.6 569.7,119.5 570.2,119.4 570.6,118.3 571.1,117.4 571.5,117.0 572.0,115.5 572.4,114.7 572.9,111.6 573.3,110.0 573.8,108.4 574.2,106.7 574.7,105.4 575.1,103.9 575.6,101.9 576.0,100.1 576.5,97.0 576.9,95.3 577.4,93.7 577.9,92.7 578.3,91.6 578.8,136.7 579.2,135.2 579.7,132.2 580.1,127.0 580.6,204.6 581.0,198.4 581.5,189.8 581.9,188.8 582.4,186.8 582.8,183.9 583.3,182.3 583.7,179.2 584.2,177.2 584.6,175.2 585.1,172.7 585.5,170.9 586.0,169.8 586.4,168.4 586.9,167.2 587.3,165.3 587.8,175.1 588.2,173.6 588.7,171.9 589.2,170.9 589.6,167.3 590.1,164.7 590.5,162.1 591.0,160.6 591.4,159.1 591.9,158.0 592.3,156.3 592.8,152.4 593.2,149.1 593.7,144.6 594.1,143.3 594.6,142.1 595.0,140.4 595.5,137.6 595.9,135.6 596.4,128.1 596.8,129.4 597.3,127.2 597.7,124.5 598.2,122.6 598.6,120.8 599.1,117.9 599.5,124.9 600.0,123.2 600.5,122.0 600.9,120.9 601.4,120.2 601.8,118.3 602.3,115.1 602.7,114.0 603.2,111.6 603.6,109.8 604.1,107.5 604.5,106.2 605.0,104.0 605.4,101.8 605.9,139.5 606.3,137.8 606.8,138.0 607.2,211.5 607.7,208.5 608.1,207.4 608.6,205.5 609.0,203.4 609.5,200.9 609.9,198.3 610.4,196.9 610.8,194.8 611.3,194.4 611.8,192.7 612.2,191.5 612.7,190.1 613.1,187.8 613.6,186.1 614.0,184.3 614.5,181.9 614.9,180.2 615.4,177.4 615.8,173.5 616.3,170.1 616.7,166.0 617.2,161.5 617.6,159.0 618.1,157.1 618.5,155.9 619.0,156.1 619.4,153.5 619.9,152.6 620.3,149.7 620.8,148.8 621.2,147.9 621.7,145.8 622.1,144.5 622.6,142.7 623.1,141.0 623.5,138.5 624.0,137.1 624.4,135.9 624.9,135.3 625.3,135.6 625.8,134.2 626.2,132.0 626.7,131.1 627.1,129.4 627.6,129.1 628.0,128.3 628.5,127.6 628.9,126.8 629.4,125.7 629.8,124.8 630.3,123.8 630.7,123.0 631.2,121.5 631.6,119.6 632.1,118.6 632.5,117.3 633.0,116.4 633.5,114.6 633.9,113.3 634.4,111.5 634.8,110.5 635.3,109.3 635.7,108.6 636.2,107.5 636.6,105.4 637.1,104.0 637.5,102.3 638.0,100.6 638.4,98.6 638.9,97.2 639.3,96.7 639.8,95.2 640.2,93.5 640.7,92.5 641.1,90.2 641.6,89.6 642.0,88.5 642.5,86.7 642.9,85.9 643.4,87.7 643.8,86.3 644.3,84.6 644.8,83.7 645.2,82.9 645.7,81.6 646.1,80.6 646.6,79.6 647.0,78.8 647.5,77.7 647.9,76.1 648.4,74.3 648.8,73.8 649.3,73.1 649.7,102.3 650.2,99.2 650.6,97.0 651.1,96.2 651.5,94.8 652.0,93.2 652.4,92.6 652.9,91.5 653.3,90.6 653.8,89.4 654.2,88.0 654.7,87.1 655.1,85.9 655.6,135.1 656.1,133.9 656.5,132.6 657.0,130.9 657.4,129.2 657.9,127.7 658.3,126.9 658.8,126.0 659.2,124.5 659.7,122.4 660.1,119.5 660.6,116.9 661.0,114.8 661.5,273.6 661.9,266.2 662.4,261.7 662.8,254.5 663.3,253.5 663.7,252.0 664.2,249.0 664.6,247.4 665.1,246.3 665.5,244.9 666.0,243.8 666.4,242.8 666.9,242.3 667.4,241.7 667.8,241.0 668.3,240.4 668.7,239.7 669.2,238.9 669.6,237.1 670.1,236.5 670.5,236.0 671.0,234.5 671.4,258.7 671.9,259.0 672.3,257.2 672.8,254.4 673.2,252.1 673.7,251.0 674.1,250.4 674.6,248.7 675.0,277.1 675.5,277.5 675.9,273.7 676.4,270.4 676.8,268.7 677.3,267.8 677.7,266.8 678.2,267.9 678.7,266.9 679.1,266.2 679.6,265.4 680.0,264.6 680.5,263.2 680.9,261.5 681.4,260.4 681.8,258.7 682.3,255.9 682.7,254.4 683.2,256.2 683.6,255.1 684.1,253.8 684.5,253.1 685.0,252.5 685.4,252.0 685.9,250.9 686.3,250.2 686.8,249.8 687.2,249.0 687.7,248.3 688.1,275.5 688.6,273.8 689.0,271.6 689.5,269.7 690.0,268.0 690.4,266.4 690.9,265.7 691.3,264.9 691.8,262.4 692.2,261.0 692.7,259.2 693.1,257.5 693.6,255.7 694.0,255.0 694.5,254.4 694.9,253.4 695.4,251.5 695.8,248.8 696.3,245.6 696.7,243.6 697.2,240.1 697.6,238.5 698.1,237.5 698.5,236.2 699.0,235.2 699.4,233.9 699.9,232.4 700.4,229.2 700.8,228.6 701.3,227.7 701.7,226.7 702.2,225.5 702.6,223.4 703.1,223.7 703.5,220.6 704.0,218.7 704.4,217.9 704.9,216.8 705.3,305.0 705.8,300.5 706.2,299.4 706.7,296.2 707.1,294.4 707.6,293.6 708.0,292.8 708.5,292.0 708.9,290.1 709.4,287.7 709.8,286.3 710.3,285.5 710.7,284.2 711.2,282.7 711.7,281.5 712.1,280.8 712.6,280.1 713.0,279.6 713.5,277.6 713.9,277.1 714.4,276.5 714.8,280.9 715.3,280.0 715.7,278.1 716.2,277.2 716.6,276.2 717.1,274.5 717.5,273.9 718.0,271.5 718.4,269.3 718.9,268.4 719.3,265.5 719.8,266.4 720.2,265.7 720.7,264.8 721.1,262.7 721.6,260.1 722.0,259.7 722.5,256.7 723.0,255.0 723.4,253.6 723.9,253.1 724.3,252.4 724.8,250.8 725.2,249.7 725.7,248.3 726.1,246.7 726.6,246.0 727.0,244.6 727.5,243.4 727.9,241.4 728.4,239.2 728.8,237.7 729.3,237.0 729.7,232.1 730.2,229.5 730.6,226.5 731.1,221.9 731.5,218.7 732.0,214.7 732.4,212.2 732.9,209.1 733.3,205.7 733.8,200.6 734.3,192.0 734.7,187.5 735.2,184.4 735.6,180.4 736.1,175.7 736.5,173.7 737.0,171.6 737.4,169.6 737.9,164.3 738.3,161.2 738.8,158.3 739.2,155.3 739.7,153.6 740.1,152.1 740.6,154.2 741.0,152.7 741.5,151.3 741.9,149.8 742.4,147.7 742.8,146.5 743.3,144.7 743.7,142.9 744.2,140.6 744.6,138.3 745.1,137.3 745.6,136.3 746.0,135.1 746.5,132.7 746.9,131.0 747.4,129.3 747.8,127.3 748.3,126.2 748.7,125.0 749.2,123.0 749.6,121.7 750.1,193.5 750.5,190.8 751.0,189.3 751.4,189.3 751.9,188.2 752.3,186.9 752.8,185.8 753.2,228.6 753.7,225.6 754.1,222.4 754.6,220.2 755.0,217.3 755.5,214.7 756.0,212.4 756.4,211.4 756.9,210.1 757.3,208.9 757.8,207.2 758.2,205.1 758.7,204.8 759.1,204.9 759.6,203.6 760.0,201.7 760.5,199.8 760.9,196.3 761.4,193.5 761.8,191.6 762.3,190.3 762.7,189.1 763.2,188.2 763.6,186.1 764.1,185.1 764.5,184.6 765.0,183.8 765.4,182.4 765.9,181.2 766.3,180.2 766.8,179.2 767.3,178.7 767.7,178.0 768.2,177.2 768.6,176.2 769.1,175.1 769.5,175.3 770.0,174.0 770.4,172.5 770.9,172.0 771.3,165.1 771.8,163.9 772.2,162.2 772.7,159.5 773.1,162.2 773.6,161.6 774.0,160.6 774.5,159.5 774.9,158.7 775.4,157.8 775.8,156.1 776.3,156.1 776.7,154.6 777.2,152.0 777.6,150.7 778.1,147.9 778.6,146.2 779.0,143.6 779.5,142.2 779.9,140.3 780.4,137.2 780.8,135.3 781.3,134.3 781.7,133.1 782.2,131.7 782.6,129.7 783.1,128.2 783.5,126.5 784.0,213.8 784.4,210.8 784.9,206.5 785.3,205.7 785.8,204.9 786.2,203.9 786.7,202.8 787.1,204.2 787.6,202.9 788.0,201.5 788.5,199.8 788.9,198.4 789.4,198.2 789.9,196.0 790.3,195.4 790.8,194.9 791.2,194.3 791.7,193.7 792.1,222.0 792.6,221.2 793.0,219.9 793.5,218.7 793.9,217.7 794.4,218.1 794.8,216.0 795.3,215.4 795.7,211.6 796.2,209.2 796.6,208.1 797.1,207.2 797.5,204.9 798.0,204.0 798.4,202.8 798.9,201.2 799.3,200.2 799.8,198.8 800.2,197.5 800.7,196.7 801.2,195.6 801.6,193.4 802.1,191.3 802.5,189.9 803.0,188.6 803.4,186.9 803.9,183.6 804.3,180.8 804.8,180.0 805.2,179.1 805.7,178.3 806.1,175.7 806.6,172.4 807.0,169.7 807.5,167.2 807.9,166.1 808.4,165.2 808.8,164.2 809.3,162.8 809.7,162.1 810.2,161.1 810.6,159.6 811.1,156.2 811.5,155.1 812.0,154.1 812.5,208.5 812.9,206.6 813.4,205.6 813.8,204.3 814.3,203.2 814.7,201.9 815.2,200.5 815.6,198.7 816.1,196.1 816.5,193.3 817.0,192.3 817.4,191.3 817.9,241.4 818.3,239.5 818.8,234.4 819.2,231.6 819.7,229.0 820.1,225.5 820.6,221.2 821.0,219.9 821.5,217.7 821.9,216.8 822.4,216.2 822.9,214.9 823.3,213.6 823.8,212.1 824.2,211.4 824.7,210.6 825.1,209.8 825.6,208.5 826.0,207.3 826.5,206.0 826.9,207.7 827.4,207.1 827.8,205.8 828.3,205.1 828.7,203.9 829.2,203.1 829.6,201.0 830.1,200.4 830.5,199.7 831.0,196.9 831.4,196.2 831.9,195.3 832.3,194.0 832.8,192.4 833.2,191.3 833.7,190.6 834.2,189.7 834.6,188.2 835.1,187.3 835.5,185.9 836.0,186.1 836.4,178.8 836.9,177.7 837.3,176.4 837.8,175.0 838.2,172.7 838.7,171.9 839.1,170.7 839.6,169.5 840.0,170.1 840.5,169.3 840.9,168.3 841.4,167.0 841.8,165.7 842.3,164.7 842.7,163.5 843.2,165.0 843.6,163.8 844.1,165.5 844.5,164.2 845.0,163.2" fill="none" stroke="black" stroke-width="1"/>
<text x="477.5" y="330" font-size="13">BWD n=814</text>
<text x="477.5" y="64" font-size="11">max=10175.92 min=9961.28</text>
<text x="20" y="352" font-size="11">Balance proxy from closed deals; exact closed-deal sequence</text>
</svg>